<?xml version="1.0" encoding="UTF-8"?>
<svg id="_图层_1" data-name="图层 1" xmlns="http://www.w3.org/2000/svg" xmlns:xlink="http://www.w3.org/1999/xlink" viewBox="0 0 493.33 481">
  <defs>
    <style>
      .cls-1 {
        fill: url(#_未命名的渐变_213);
      }

      .cls-2 {
        fill: #df0000;
        font-family: MicrosoftYaHeiUI-Bold, 'Microsoft YaHei UI';
        font-size: 139.28px;
        font-weight: 700;
      }
    </style>
    <radialGradient id="_未命名的渐变_213" data-name="未命名的渐变 213" cx="246.67" cy="240.5" fx="246.67" fy="240.5" r="243.6" gradientUnits="userSpaceOnUse">
      <stop offset="0" stop-color="#e90006"/>
      <stop offset="1" stop-color="#0a002a"/>
    </radialGradient>
  </defs>
  <path class="cls-1" d="M0,246.67c0,107.48,68.71,199.1,165.62,232.57,12.33,3.52,10.57-5.29,10.57-12.33v-42.28c-74,8.81-77.52-40.53-82.81-49.33-10.57-17.62-33.48-21.14-26.43-29.95,17.62-8.81,35.24,1.76,54.62,31.71,14.1,21.14,42.28,17.62,58.14,14.1,3.52-12.33,10.57-24.67,19.38-33.48-79.29-12.33-111-59.9-111-116.29,0-26.43,8.81-52.86,26.43-72.24-12.33-33.48,0-63.43,1.76-66.95,31.71-3.52,65.19,22.91,68.71,24.67,17.62-5.29,38.76-7.05,61.66-7.05s44.05,3.52,61.67,7.05c7.05-5.29,37-26.43,66.95-24.67,1.76,3.53,14.1,31.71,3.52,65.19,17.62,21.14,26.43,45.81,26.43,72.24,0,56.38-31.72,103.95-111,118.05,12.33,12.33,21.14,29.95,21.14,51.1v61.67c0,5.29,0,10.57,8.81,10.57,98.67-33.48,169.14-125.09,169.14-234.33C493.33,111,382.33,0,246.67,0S0,111,0,246.67H0Zm0,0"/>
  <text class="cls-2" transform="translate(141.9 291.39)"><tspan x="0" y="0">CN</tspan></text>
</svg>